<?xml version="1.0" encoding="iso-8859-1"?>
<!-- Generator: Adobe Illustrator 19.0.0, SVG Export Plug-In . SVG Version: 6.00 Build 0)  -->
<svg version="1.1" id="Layer_1" xmlns="http://www.w3.org/2000/svg" xmlns:xlink="http://www.w3.org/1999/xlink" x="0px" y="0px"
	 viewBox="0 0 512 512" style="enable-background:new 0 0 512 512;" xml:space="preserve">
<path style="fill:#C04935;" d="M454.469,252.087H57.531c-19.199,0-34.823,15.757-34.823,35.122v2.883L66.33,480.859l0.639,2.293
	c5.19,15.725,20.453,27.14,36.286,27.14h305.498c15.833,0,31.093-11.411,36.286-27.14l44.254-193.059v-2.883
	C489.289,267.843,473.668,252.087,454.469,252.087z M324.798,461.688l2.786-31.013h22.874l-4.88,31.013H324.798z M271.862,461.688
	v-31.013h23.854l-2.786,31.013H271.862z M219.066,461.688l-2.786-31.013h23.854v31.013H219.066z M166.423,461.688l-4.884-31.013
	h22.878l2.786,31.013H166.423z M87.324,365.12h31.746l5.058,32.142H94.675L87.324,365.12z M151.219,365.12h27.31l2.887,32.142
	H156.28L151.219,365.12z M172.742,300.69l2.786,31.016h-29.564l-4.88-31.016H172.742z M370.917,300.69l-4.88,31.016h-29.568
	l2.786-31.016H370.917z M304.602,331.707h-32.743V300.69h35.532L304.602,331.707z M271.862,365.12h29.745l-2.887,32.142h-26.855
	V365.12H271.862z M240.138,397.262h-26.855l-2.887-32.142h29.745v32.142H240.138z M240.138,331.707h-32.746l-2.786-31.016h35.532
	V331.707z M330.581,397.262l2.887-32.142h27.31l-5.061,32.142H330.581z M392.93,365.12h31.746l-7.347,32.142h-29.453L392.93,365.12z
	 M432.314,331.707h-34.122l4.88-31.016h36.334L432.314,331.707z M108.924,300.69l4.88,31.016H79.682l-7.093-31.016H108.924z
	 M102.31,430.675h27.077l4.88,31.013h-24.864L102.31,430.675z M402.594,461.688h-24.864l4.88-31.013h27.074L402.594,461.688z"/>
<path style="fill:#CD4E38;" d="M512,288.446c0,7.201-5.839,13.04-13.04,13.04H13.04c-7.201,0-13.04-5.839-13.04-13.04V235.25
	c0-7.201,5.839-13.04,13.04-13.04h485.92c7.201,0,13.04,5.839,13.04,13.04L512,288.446L512,288.446z"/>
<path style="fill:#383131;" d="M286.525,225.308c0,7.201-5.839,13.04-13.04,13.04h-47.346c-7.201,0-13.044-5.839-13.044-13.04
	V14.749c0-7.201,5.843-13.04,13.044-13.04h47.346c7.201,0,13.04,5.839,13.04,13.04V225.308z"/>
<path style="fill:#4B4040;" d="M198.923,210.08v24.333c0,28.109,22.787,50.893,50.889,50.893c28.109,0,50.893-22.787,50.893-50.893
	V210.08H198.923z"/>
<path style="fill:#514646;" d="M254.223,196.613c0,2.432-1.973,4.408-4.412,4.408l0,0c-2.432,0-4.408-1.973-4.408-4.408V24.107
	c0-2.435,1.973-4.408,4.408-4.408l0,0c2.435,0,4.412,1.973,4.412,4.408V196.613z"/>
<g>
</g>
<g>
</g>
<g>
</g>
<g>
</g>
<g>
</g>
<g>
</g>
<g>
</g>
<g>
</g>
<g>
</g>
<g>
</g>
<g>
</g>
<g>
</g>
<g>
</g>
<g>
</g>
<g>
</g>
</svg>
