<?xml version="1.0" encoding="utf-8"?>
<!-- Generator: Adobe Illustrator 21.1.0, SVG Export Plug-In . SVG Version: 6.00 Build 0)  -->
<svg version="1.1" id="Calque_1" xmlns="http://www.w3.org/2000/svg" xmlns:xlink="http://www.w3.org/1999/xlink" x="0px" y="0px"
	 viewBox="0 0 432 432" style="enable-background:new 0 0 432 432;" xml:space="preserve">
<style type="text/css">
	.st0{fill:#A67D52;}
	.st1{fill:#412413;}
	.st2{fill:#E52629;}
	.st3{fill:#8C633A;}
	.st4{fill:#009245;}
	.st5{fill:#A3282E;}
	.st6{fill:#F9B03D;}
	.st7{fill:#8C841E;}
	.st8{fill:#CE7B1A;}
	.st9{fill:#014837;}
	.st10{fill:#603914;}
	.st11{fill:#921D25;}
	.st12{fill:#020203;}
	.st13{fill:#EAA35C;}
	.st14{fill:#C67B3E;}
	.st15{fill:#9A9999;}
	.st16{fill:#DC7B18;}
	.st17{fill:#07672F;}
	.st18{fill:#82171C;}
	.st19{fill:#754D24;}
	.st20{fill:#FFFFFF;}
	.st21{fill:#CE7278;}
	.st22{fill:#2DABE3;}
	.st23{fill:#AE4525;}
	.st24{fill:#D8A67D;}
	.st25{fill:#E7E6E6;}
	.st26{fill:#DB4B88;}
	.st27{fill:#6DB644;}
	.st28{fill:#ECA9C4;}
	.st29{fill:#A6CD82;}
	.st30{fill:#B88E5C;}
	.st31{fill:#634E42;}
	.st32{fill:#F2F2F2;}
	.st33{fill:#80BDD9;}
	.st34{fill:#208ABA;}
	.st35{fill:#432918;}
	.st36{fill:#909321;}
	.st37{fill:#936037;}
</style>
<g>
	<g>
		<path class="st4" d="M200,279.2c-0.1,0-0.3,0-0.4,0.1c-1.7,0.8-3.6,1.1-5.5,1.3c-1.9,0.3-3.9,0.5-5.9,0.2
			c-0.9-0.1-1.9-0.3-2.8-0.5c-0.4-0.1-0.8-0.1-1.1,0.1c-2.8,1.5-5.8,2.2-9,2.3c-2.6,0.1-5.1-0.2-7.6-0.9c-1.9-0.5-3.6-1.5-5-2.9
			c-0.2-0.1-0.3-0.3-0.6-0.5c-0.4,0.3-0.7,0.7-1,1c-2.4,2.4-5.1,4-8.4,4.8c-3.8,0.9-7.5,0.6-11.1-0.6c-4.1-1.4-7.8-3.5-10.4-7.1
			c-0.1-0.1-0.1-0.2-0.3-0.4c-0.3,0.3-0.5,0.5-0.8,0.8c-2,2.1-4.3,3.7-7.1,4.4c-3.9,1.1-7.6,0.7-11.2-1.2c-2.2-1.1-4-2.7-5.6-4.5
			c-0.2-0.2-0.4-0.4-0.6-0.7c-0.2,0.2-0.4,0.4-0.6,0.6c-1.2,1.5-2.5,2.8-3.9,4c-2.5,2-5.3,3.1-8.5,3.3c-1.3,0.1-2.7,0.3-4,0
			c-0.2-0.1-0.5-0.1-0.7-0.2c-1.8-0.6-3.5-1.4-5.1-2.4c-1.7-1.1-2.7-2.7-3.6-4.5c-0.3-0.6-0.6-1.2-0.9-1.9c-0.3,0.1-0.5,0.2-0.7,0.3
			c-1.7,1-3.6,1.3-5.5,1.4c-1.2,0.1-2.3-0.3-3.4-1c-2.3-1.5-4-3.5-4.9-6.1c-1.2-3.2-1.6-6.4-0.8-9.7c0.3-1.1,0.7-2.2,1.2-3.2
			c0.5-1.1,1.1-2.1,1.7-3.1c0-0.1,0-0.2,0-0.2c-1.7-2.1-2.6-4.7-3-7.3c-0.8-4.9-0.2-9.5,2-14c1.2-2.5,2.8-4.8,5.1-6.5
			c0.1-0.1,0.2-0.1,0.3-0.2c-0.1-0.2-0.1-0.3-0.1-0.4c-0.9-1.5-1.4-3.1-1.6-4.8c-0.6-5.1,0.6-9.6,4-13.5c1.8-2,4-3.4,6.3-4.7
			c2.2-1.3,4.6-2.1,7.2-2.3c0.4,0,0.7-0.1,1.1-0.2c0-0.3,0-0.6,0-0.8c-0.3-5.3,1.6-9.9,4.9-14c2-2.5,4.7-4.4,7.5-6
			c0.3-0.2,0.6-0.4,1.1-0.6c-1.5-1.6-2.7-3.2-3.5-5.1c-0.8-2-1.2-4-1.5-6.1c-0.2-2.1-0.2-4.1,0.2-6.2c0.4-2.1,1-4,2-5.9
			c1-1.8,2.3-3.4,3.7-5c-0.2-0.1-0.2-0.3-0.4-0.3c-2.5-1.5-4-3.7-4.9-6.3c-0.6-1.6-0.9-3.3-1-5.1c-0.3-4.1,0.1-8.2,1.3-12.1
			c1.3-4.3,4.1-7.2,8.2-9c1.3-0.6,2.7-1,4-1.5c0.3-0.1,0.6-0.2,0.8-0.3c0-0.1,0.1-0.2,0.1-0.3c0-2.5,1-4.6,2.2-6.6
			c2.4-3.8,5.6-6.9,9.7-8.7c3.7-1.7,7.6-2.1,11.6-1.1c2.4,0.6,4.5,1.8,6.2,3.6c0.8,0.8,1.6,1.7,2.5,2.6c0.1-0.1,0.3-0.2,0.4-0.3
			c1.9-2.1,4.3-3.5,7-4.5c3.1-1.1,6.3-1.9,9.5-2.2c3.5-0.3,7-0.4,10.4,0.6c1.2,0.4,2.5,0.9,3.7,1.3c0.3,0.1,0.5,0.2,0.9,0.4
			c0-0.6,0-1.1-0.1-1.6c-0.3-3.5-0.2-7,0.8-10.4c1-3.3,2.5-6.2,5.2-8.4c1.9-1.6,4.2-2.5,6.7-2.9c0.9-0.1,1.7-0.2,2.6-0.3
			c0.1-0.2,0.2-0.4,0.2-0.6c1.6-5.2,5.2-8.3,10.4-9.6c4.8-1.2,9.3-0.5,13.4,2.3c1.5,1,2.7,2.4,3.6,4c0.6,1.1,1.1,2.3,1.7,3.5
			c0.1,0.2,0.2,0.4,0.3,0.6c1.2-0.3,2.3-0.7,3.5-0.9c5.8-1.3,10.8,0.4,15,4.5c2.3,2.2,3.4,5.1,3.9,8.1c0.2,1.4,0.2,2.8,0.3,4.3
			c0.5,0,1,0,1.6,0.1c4.5,0.4,8.3,2.2,11.6,5.1c3,2.6,4.9,5.9,5.7,9.8c0.5,2.2,0.3,4.3-0.3,6.4c-0.1,0.5-0.3,1-0.5,1.6
			c0.3,0,0.4,0.1,0.6,0.1c3.8-0.4,7.4,0.2,10.8,1.7c3.6,1.6,6,4.6,7.4,8.2c0.5,1.1,0.7,2.3,1.1,3.6c3.4-0.9,6.8-1.1,10.1,0.4
			c3.3,1.4,5.8,3.7,7.7,6.7c1.9,3.1,2.4,6.4,2,10c0.4,0.1,0.7,0.1,1,0.2c1.8,0.4,3.4,1,5,1.9c8.1,4.7,13.4,11.6,16.2,20.6
			c0.2,0.7,0.3,1.3,0.5,2.1c7.4-3.5,13.9-2.7,19.5,3.7c0.1-0.1,0.3-0.2,0.5-0.3c2.1-1.3,4.4-1.6,6.7-1c2.3,0.6,4.2,1.7,5.8,3.4
			c3.3,3.8,5,8.1,4.8,13.1c-0.1,2.1-0.7,4-1.5,6c-0.6,1.3-1.2,2.6-1.8,3.9c-0.1,0.3-0.3,0.5-0.5,0.9c0.3,0.1,0.5,0.2,0.8,0.3
			c6.5,2.4,10.7,7,12.4,13.7c0.7,2.6,0.4,5.1-0.7,7.5c-1.4,3-3.4,5.5-6,7.6c-1.2,1-2.6,1.8-3.8,2.8c-0.4,0.3-0.7,0.5-1.2,0.8
			c0.2,0.2,0.4,0.4,0.6,0.6c3.6,3.5,5.6,7.7,6.1,12.7c0.6,5.4-1,10.2-3.7,14.8c-1.1,1.7-2.3,3.3-3.8,4.7c-2.5,2.3-5.4,3.9-8.8,4.3
			c-0.6,0.1-1.3,0.1-1.9,0.1c-0.3,0-0.7,0-1,0c0,0.2-0.1,0.4-0.1,0.6c0.1,3.8-1.3,7.1-3.7,10c-2.8,3.3-6.3,5.8-10.1,7.8
			c-4.1,2.1-8.4,3.6-13,4.3c-4.2,0.6-8.2,0-12.1-1.6c-4.4-1.8-8.3-4.3-11.7-7.6c-0.1-0.1-0.3-0.3-0.5-0.4c0,0-0.1,0-0.2-0.1
			c-1.7,3.6-4.4,5.9-8.4,6.5c-4.1,0.6-7.1-1.3-9.5-4.4c-0.2,0.1-0.3,0.1-0.3,0.2c-1.9,2-4.2,3.1-6.8,3.7c-2.7,0.6-5.4,1-8.1,0.9
			c-2-0.1-4-0.5-5.9-1.4c-0.3-0.1-0.6-0.2-1-0.4c-0.1,0.9-0.1,1.6-0.2,2.4c-0.4,3.8-2,6.9-4.9,9.4c-3.4,2.9-7.3,4.7-11.6,5.4
			c-1.4,0.2-2.8,0.4-4.2,0.5c-4.1,0.2-7.5-1.1-9.8-4.6c-0.1-0.2-0.3-0.4-0.5-0.7c-0.3,0.2-0.6,0.3-0.8,0.5c-2.2,1.3-4.5,2-7,1.6
			c-2.7-0.4-5.1-1.6-7.1-3.4c-3.2-2.8-5.1-6.3-6-10.3c-0.6-2.6-0.8-5.3-0.7-7.9c0-0.3,0-0.7,0-1C200.2,279.4,200.1,279.3,200,279.2z
			"/>
	</g>
	<path class="st10" d="M110.6,238.3c-0.6-0.4-1.1-0.8-1.7-1.1c-2.9-1.7-5.5-3.7-8-5.9c-2.4-2.1-4.8-4.3-7.2-6.4
		c-0.7-0.6-1.3-1.3-2-2c-0.2-0.3-0.5-0.5-0.7-0.9c-0.8-1.3,0-2.9,1.6-2.9c0.6,0,1.2,0.2,1.7,0.4c0.8,0.4,1.6,0.9,2.3,1.4
		c2.9,2.1,5.8,4.1,8.6,6.4c4.8,3.8,10.2,6.2,16,7.9c1.7,0.5,3.3,0.9,5,1.2c1.5,0.3,3.1,0.3,4.6,0.4c0.8,0.1,1.7,0.1,2.7,0.2
		c-0.3-0.3-0.5-0.5-0.6-0.7c-2.6-3.2-5.7-6-8.5-9c-0.6-0.6-1.1-1.3-1.7-1.9c-0.2-0.3-0.4-0.5-0.5-0.8c-0.7-1.6,0.3-3.2,2.1-3.1
		c0.4,0,0.9,0.1,1.3,0.3c0.9,0.5,1.9,1,2.7,1.6c1.2,0.9,2.4,1.9,3.6,2.9c2.6,2.3,5.2,4.6,7.8,7c2.5,2.3,5.3,3.9,8.4,5.2
		c1.8,0.7,3.6,1.6,5.4,2.3c2.3,0.8,4.6,1.6,7,2.4c-0.1-0.4-0.1-0.6-0.2-0.8c-0.9-2.6-1.4-5.3-1.4-8c0-3.3,0.2-6.6,0.4-9.9
		c0.2-2.9,0.4-5.9,0.6-8.8c0.2-3.1,0.5-6.3,0.7-9.4c0.2-3.4,0.3-6.9,0.4-10.4c0.1-3.3-0.3-6.7-0.6-10c-0.4-3.6-1-7.1-2.5-10.4
		c-0.8-1.7-1.4-3.5-2.2-5.3c-3.5-8-7.4-15.8-11.5-23.4c-2.3-4.2-4.5-8.4-6.8-12.7c-0.2-0.5-0.4-0.9-0.6-1.4
		c-0.3-1.2,0.5-2.4,1.7-2.5c1.1-0.1,2.1,0.1,2.9,0.9c1.7,1.6,3.2,3.4,4.5,5.3c2.8,4.3,5.6,8.7,8.1,13.2c1.9,3.5,4,6.9,5.7,10.4
		c1.5,3,2.7,6.1,3.7,9.3c0.7,2.1,1.4,4.3,2.1,6.4c0.3,0.9,0.5,1.8,0.7,2.8c0.4-0.4,0.6-0.8,0.8-1.3c1.7-4.1,3.9-8,6-11.9
		c2.1-4.1,3.5-8.4,4.8-12.8c0.7-2.3,0.9-4.6,1.1-7c0-0.5,0.1-0.9,0.2-1.3c0.3-1.2,1-1.9,2.1-2c1.1-0.1,2.1,0.4,2.6,1.5
		c0.4,1,0.6,2,0.8,3.1c0.7,3.5,0.1,6.9-0.8,10.2c-1.5,5.5-3.6,10.7-6.6,15.5c-2.2,3.6-4,7.5-5.4,11.5c-1,2.9-1.5,5.8-1.6,8.8
		c-0.2,5.1-0.4,10.2-0.6,15.3c-0.2,3.3,0,6.5,0.7,9.8c0.7,3.2,1.8,6.3,3,9.3c2,4.9,4.5,9.6,7.8,13.8c0.2,0.3,0.5,0.6,0.7,0.8
		c0,0,0.1,0,0.2,0.1c0.1-0.2,0.2-0.4,0.3-0.7c0.7-1.7,1.3-3.4,2.2-5c2.5-4.4,5.1-8.7,8.4-12.6c2.9-3.3,5.7-6.7,8.9-9.9
		c2.2-2.2,4.3-4.5,6.5-6.8c2.7-2.9,5-6,7-9.5c2.7-4.9,5.4-9.8,7.1-15.2c1.1-3.6,2-7.3,2.5-11c0.4-2.6,0.2-5.2-0.1-7.8
		c-0.5-3.9-1.3-7.8-2.5-11.5c-1.7-5-3.9-9.8-6.7-14.3c-3.5-5.8-7-11.5-10.4-17.4c-3.6-6.2-7.1-12.6-10-19.2c-1.1-2.5-2-4.9-2.2-7.6
		c0-0.5,0-1,0.1-1.5c0.2-1.2,0.8-2.1,2.1-2.4c1.2-0.3,2.3,0.1,3.1,1.1c0.2,0.3,0.4,0.7,0.6,1c0.4,0.8,0.8,1.6,1.1,2.5
		c1.9,4.8,4.4,9.3,7,13.6c2.3,3.9,4.7,7.7,7.1,11.5c2,3.2,4.2,6.2,6.3,9.4c0.1,0.2,0.3,0.3,0.5,0.6c0.2-0.9,0.3-1.6,0.5-2.3
		c0.9-2.9,1.7-5.9,2.7-8.8c0.7-2.1,1.9-4,3.3-5.8c0.3-0.4,0.6-0.7,1-1.1c0.2-0.2,0.5-0.4,0.8-0.6c0.8-0.5,1.7-0.4,2.3,0.1
		c0.7,0.6,0.8,1.3,0.6,2.1c-0.3,0.9-0.7,1.8-1.1,2.7c-1.7,3.4-2.7,6.9-3.4,10.6c-0.3,1.7-0.4,3.4-0.5,5.1c-0.1,1.1-0.1,2.2-0.1,3.4
		c-0.1,1.3,0,2.6,0.3,3.9c0.5,2.1,1,4.2,1.9,6.2c2.3,5.2,3.7,10.6,4.5,16.2c0,0.2,0.1,0.5,0.2,0.8c0.2-0.2,0.4-0.4,0.5-0.6
		c3.1-3.7,6.2-7.4,9.4-11c0.5-0.5,1.1-1,1.7-1.4c0.5-0.4,1.1-0.4,1.6-0.4c0.5,0.1,1,0.3,1.2,0.8c0.5,1.1,0.8,2.3,0.1,3.5
		c-2.2,3.6-4.5,7.2-7.3,10.4c-1.1,1.2-2,2.6-3,3.9c-1.7,2.2-2.6,4.8-3.1,7.5c-0.8,4.2-2.1,8.3-3.7,12.3c-2,4.8-4.6,9.4-7.1,13.9
		c-0.2,0.4-0.4,0.7-0.7,1.2c0.4-0.1,0.6-0.1,0.8-0.1c4-0.9,8-1.6,12-1.9c8.3-0.5,16.1-2.8,23.7-5.9c3.7-1.5,7-3.6,10.1-6.1
		c2.7-2.1,5.4-4.3,7.6-7c1.2-1.5,2.2-3,3.3-4.5c0.1-0.2,0.2-0.4,0.3-0.5c0.5-0.8,1.3-1.1,2-0.8c0.9,0.3,1.7,0.8,1.6,1.9
		c-0.1,0.6-0.2,1.3-0.4,1.9c-0.7,1.9-1.8,3.6-3,5.2c-2.7,3.8-6,7-9.6,10.1c-4.4,3.8-9.4,6.4-14.8,8.5c-3.6,1.4-7.2,2.6-11,3.5
		c-0.1,0-0.3,0.1-0.5,0.2c0.1,0.1,0.2,0.2,0.3,0.2c5,2.2,9.9,4.4,14.9,6.6c5.7,2.4,11.6,4,17.7,5c3.1,0.5,6.2,0.8,9.3,1.3
		c0.3,0,0.6,0.1,0.9,0.2c1.2,0.4,1.9,1.2,2,2.3c0.1,1.1-0.5,2.1-1.7,2.6c-0.6,0.3-1.3,0.4-1.9,0.6c-2.4,0.5-4.9,0.5-7.3,0.2
		c-6.4-0.9-12.7-2.3-18.7-4.8c-4.8-1.9-9.4-4.1-14.2-6.1c-3.4-1.4-6.8-2.7-10.2-4.1c-1.7-0.7-3.3-0.7-5.1-0.4
		c-3.4,0.7-6.9,1.6-10.1,3c-1,0.5-2.1,1-3,1.7c-5.1,3.8-8.6,8.7-10.4,14.8c-1,3.5-1.7,7-1.8,10.6c-0.1,3.2,0.5,6.4,1.3,9.5
		c1.7,6.3,4.1,12.3,6.5,18.3c1.1,2.8,2.1,5.7,3.2,8.5c0,0.1,0.1,0.3,0.2,0.5c0.1-0.1,0.2-0.2,0.3-0.3c3.4-4.6,7.6-8.2,12.6-10.9
		c4.9-2.7,10.2-4.4,15.6-5.4c4.3-0.8,8.5-1.5,12.8-2.2c5.7-1,11.1-2.7,15.8-6c2.4-1.7,4.6-3.5,6.9-5.4c1.5-1.2,2.8-2.5,4.2-3.7
		c0.4-0.4,0.9-0.7,1.3-1c0.5-0.3,1.1-0.4,1.7-0.3c1,0.3,1.6,1.3,1.1,2.3c-0.2,0.4-0.4,0.7-0.7,1c-2.4,2.7-4.8,5.4-7.3,8.1
		c-0.2,0.2-0.4,0.4-0.6,0.7c-1.7,1.9-3.4,3.9-5.7,5.2c0,0.1,0.1,0.1,0.1,0.2c0.3-0.1,0.6-0.1,0.9-0.2c6.3-1.9,11.9-4.9,17-9
		c4.6-3.7,8.5-7.9,12.2-12.4c4.5-5.6,8.6-11.5,12.6-17.5c2.4-3.6,5-7.1,7.8-10.4c2-2.3,3.9-4.8,5.9-7.1c1.2-1.3,2.5-2.5,3.9-3.7
		c1.3-1.2,2.9-1.9,4.6-2.4c1.4-0.4,2.8-0.6,4.2-0.9c0.3-0.1,0.7,0,1,0.1c1,0.3,1.3,1.4,0.6,2.2c-0.2,0.3-0.6,0.5-0.9,0.7
		c-2.6,1.9-5.2,3.7-7.6,5.9c-0.5,0.4-0.9,0.9-1.3,1.4c-2.9,4-5.8,8.1-8.6,12.2c-3.3,4.8-6.4,9.8-9.7,14.6c-2,2.9-4.2,5.7-6.3,8.5
		c-0.2,0.3-0.4,0.6-0.7,1c1-0.1,1.8-0.2,2.6-0.3c3.4-0.4,6.7,0,10,0.8c5.6,1.4,11.1,3.2,16.2,6.1c1.1,0.6,2.2,1.3,3.2,2.1
		c0.6,0.4,1.1,1,1.5,1.5c0.6,0.8,0.8,1.7,0.3,2.6c-0.5,0.9-1.3,1.3-2.3,1.4c-1.2,0.1-2.3-0.4-3.4-1c-1.8-0.9-3.5-1.8-5.3-2.7
		c-3.9-1.9-8-3.2-12.2-4c-3.5-0.6-7-0.9-10.5-0.5c-2.1,0.3-4.1,0.7-6.1,1.5c-0.7,0.3-1.2,0.7-1.7,1.2c-6.9,6.9-14.9,11.9-24.2,14.9
		c-3.8,1.2-7.7,2-11.7,2.6c-7.5,1.3-14.9,2.8-22.2,4.7c-2.9,0.8-5.7,1.7-8.4,3.1c-0.5,0.3-0.9,0.6-1.3,1c-3,3.6-5.4,7.6-7.3,11.8
		c-2.2,4.7-3.9,9.7-5.4,14.7c-1.9,6.5-3.7,12.9-5.7,19.3c-1.8,5.9-2.1,12-1.8,18.2c0.3,4.3,1.4,8.3,3,12.3c0.3,0.9,0.8,1.7,1.3,2.5
		c0.2,0.3,0.4,0.6,0.5,0.9c0.9,1.7,0.4,3.5-1.4,4.4c-1.1,0.6-2.3,0.7-3.5,0.5c-2.7-0.4-5.4-0.2-8.1,0.2c-2.5,0.4-5.1,0.7-7.6,1.1
		c-2.4,0.3-4.7,0.7-7.1,1c-2.9,0.3-5.8,0.4-8.7,0.2c-1.4-0.1-2.8-0.2-4.2-0.4c-2.2-0.4-3.4-1.8-3.6-4.1c-0.1-1.6,0.3-3.1,0.8-4.6
		c0.4-1.1,0.9-2.1,1.5-3.1c0.8-1.4,1.7-2.7,2.6-4.1c1.4-2.1,2.5-4.4,3.3-6.8c0.1-0.4,0.3-0.9,0.5-1.3c1.2-2.6,1.2-5.3,1.1-8
		c-0.2-3.5-0.4-7-0.6-10.5c-0.1-2.7-0.2-5.4-0.3-8.1c-0.1-2.6,0.2-5.1,0.4-7.7c0.6-5.8,1.4-11.7,1.7-17.5c0.4-6.2-1-11.9-4.1-17.3
		c-2-3.4-4.7-6.3-7.8-8.8c-6.1-5.1-13-8.9-20.2-12c-1.6-0.7-3.1-1.5-4.7-1.8c-2.4-0.4-4.9-0.9-7.3-1.3c-3.6-0.6-7.3-1.2-10.9-1.7
		c-1.9-0.3-3.7-0.5-5.6-0.5c-3.7-0.1-7.5,0-11.2,0.5c-3,0.4-5.8,1.3-8.6,2.1c-5.2,1.6-10.2,3.7-14.9,6.4c-1.1,0.6-2.3,1.1-3.5,1.5
		c-0.6,0.2-1.3,0.3-2,0.2c-1.4-0.2-2.1-1.5-1.5-2.8c0.2-0.5,0.5-0.9,0.9-1.2c4.9-4.1,9.8-8,15.8-10.4c2.3-1,4.7-1.6,7.2-1.9
		c0.5-0.1,0.9-0.2,1.4-0.3C110.6,238.4,110.6,238.4,110.6,238.3z"/>
	<path class="st17" d="M218.2,366c-10.5,0-21-0.1-31.5,0c-13.6,0.1-27.2,0.3-40.7,0.4c-5.8,0.1-11.6,0.2-17.4,0.3
		c-3,0.1-6,0.2-9,0.3c-4.4,0.2-8.8,0-13.2-0.1c-2.6-0.1-5.3-0.3-7.9-0.6c-0.9-0.1-1.9-0.3-2.7-0.6c-1.3-0.4-1.6-1-1.1-1.8
		c0.2-0.3,0.4-0.5,0.6-0.7c2.8-2.7,5.9-5.2,9.5-7.6c2.7-1.8,5.4-3.6,8.4-5.3c6.5-3.6,14.1-6.6,22.6-8.9c8.4-2.3,16.9-4.4,25.8-6
		c7.1-1.3,14.5-2,22-2.4c6.5-0.3,13-0.5,19.6-0.4c14.8,0.2,29.5,1.1,43.9,3.1c16.9,2.3,32.1,6.5,45.4,12.5c5.7,2.6,11.4,5.2,16,8.4
		c1.8,1.3,3.6,2.6,5.3,3.9c0.8,0.7,1.6,1.4,2,2.2c1.1,1.8-0.7,3.2-4.2,3.6c-4,0.4-7.9,0.2-11.9,0.1c-8.3-0.2-16.6-0.3-24.9-0.5
		c-15.5-0.4-31-0.3-46.5-0.2C224.8,365.8,221.5,365.9,218.2,366C218.2,366,218.2,366,218.2,366z"/>
	<path class="st2" d="M274.7,336.7c-7.2,1.6-14.3,2.8-21.6,3.2c0.1,0.3,5.6,16.7,5.7,16.9c0.3,0.8,0.6,1.7,0.9,2.5
		c0.5,1.5-0.1,2.8-1.4,3.3c-1.3,0.5-2.8,0-3.5-1.3c-0.5-1-6.4-18.1-6.8-19.1c-1-2.7-1.9-5.4-2.9-8.1c-4.4-11.6-8.2-23.3-12.2-35
		c-3.1-9.3-5.9-18.7-8.6-28.1c-1-3.5-2.1-6.9-3.1-10.4c-0.8-3-1.5-6-2.2-8.9c-0.3-1.3-0.4-2.7-0.6-4c-0.1-0.5,0-1.1,0.1-1.6
		c0.1-0.6,0.3-1,0.9-1.2c0.6-0.1,1,0.2,1.3,0.6c0.4,0.6,0.8,1.1,1.1,1.7c0.8,1.8,1.5,3.7,2.2,5.6c0.1,0.3,0.2,0.7,0.3,1
		c1.5,0.2,12.7-0.7,14.6-1.1c-0.1-0.3-0.2-0.7-0.3-1c-0.5-1.4-1-2.8-1.4-4.3c-0.3-0.9-0.4-1.8-0.5-2.7c-0.1-0.8,0.1-1.4,0.8-1.8
		c0.8-0.4,1.4,0,1.9,0.5c0.7,0.9,1.4,1.8,2,2.8c0.9,1.8,1.7,3.6,2.6,5.4c2.8,6,5.6,12.1,8.3,18.1c5.3,11.7,10.7,23.4,15.9,35.2
		c5.7,12.9,11.1,25.8,16.6,38.8c0.5,1.2,1,2.4,1.4,3.6c0.3,0.7,0.5,1.5,0.6,2.3c0.1,1.1-0.2,2-1.2,2.6c-1,0.6-2,0.6-3,0.1
		c-0.8-0.4-1.4-1.1-1.8-1.9c-0.5-0.9-0.9-1.7-1.3-2.6c-1.5-3.3-2.9-6.6-4.4-9.9C275.1,337.4,274.9,337.1,274.7,336.7z M260.4,304
		c-2.1-4.8-4.1-9.4-6.1-14.2c-5.7,1.4-11.4,2.1-17.3,2.4c1.7,5,3.3,9.8,4.9,14.6C248,305.8,254.1,304.4,260.4,304z M268,321.2
		c-6.7,1.7-13.3,3.3-20.3,3.6c1.4,4,2.7,7.8,4,11.6c0.4-0.1,0.8-0.1,1.1-0.1c4.1-0.6,8.2-1.2,12.3-1.8c2.2-0.3,4.4-0.7,6.6-1
		c0.5-0.1,1-0.3,1.6-0.5C271.4,329.1,269.7,325.2,268,321.2z M225.5,257c1.7,5.2,3.4,10.4,5.2,15.6c2.7-0.4,5.2-0.8,7.8-1.2
		c2.6-0.3,5.2-0.4,8-0.8c-2-4.8-4-9.5-6.1-14.2C235.5,256.6,230.5,256.8,225.5,257z M231.4,275.4c1.5,4.6,3,9.2,4.4,13.7
		c5.8-0.8,11.4-1.7,17.1-2.5c-0.1-0.4-0.2-0.6-0.3-0.9c-1.4-3.3-2.8-6.7-4.1-10c-0.8-1.8-0.8-1.8-2.7-1.7c-0.1,0-0.1,0-0.2,0
		c-2.4,0.2-4.8,0.4-7.1,0.6C236.2,274.9,233.9,275.1,231.4,275.4z M246.6,321.6c6.7-1.5,13.5-1.8,20.3-2.9
		c-1.7-3.8-3.2-7.6-4.9-11.3c-3.3,0.5-6.4,1.1-9.5,1.6c-3.1,0.4-6.3,0.8-9.5,1.2C244.1,314.1,245.4,317.8,246.6,321.6z"/>
	<g>
		<g>
			<path class="st2" d="M116,210.3c0,1.4-0.2,2.9-0.7,4.2c-0.3,0.9-0.8,1.8-1.4,2.6c-0.6,0.7-1.2,1.2-2,1.6
				c-0.5,0.2-0.9,0.4-1.5,0.4c-0.3,0-0.6,0-0.8,0c-0.5,0-0.9-0.1-1.4-0.2c-0.7-0.2-1.4-0.5-2.1-1c-0.2-0.1-0.3-0.2-0.5-0.3
				c0,0-0.1,0.1-0.1,0.1c-0.5,0.5-1.1,0.8-1.8,1c-0.5,0.1-1,0.2-1.5,0.1c-1-0.1-1.9-0.4-2.7-1c-0.4-0.3-0.7-0.7-1-1.1
				c-0.5-0.7-0.8-1.5-0.9-2.4c-0.2-0.8-0.3-1.6-0.2-2.4c0-1.2,0.2-2.4,0.5-3.6c0.2-0.6,0.4-1.3,0.6-1.9c0.2-0.4,0.4-0.8,0.6-1.1
				c0.5-0.7,1.1-1.2,1.9-1.6c0.5-0.3,1.1-0.4,1.6-0.4c0.4,0,0.9,0.1,1.2,0.3c0.2,0.1,0.4,0.3,0.6,0.4c0.2,0.2,0.4,0.4,0.6,0.6
				c0.1,0.1,0.1,0.2,0.2,0.2c0,0.1,0.1,0.1,0.1,0.2c0,0,0,0,0,0c0-0.1,0-0.1,0-0.2c0-0.3,0.1-0.5,0.3-0.7c0.1-0.1,0.1-0.2,0.2-0.3
				c0.3-0.4,0.5-0.7,0.9-1c0.3-0.3,0.7-0.5,1-0.7c0.5-0.3,1-0.5,1.5-0.6c0.3-0.1,0.6-0.1,0.9-0.1c1.2-0.1,2.2,0.3,3.1,1.1
				c0.6,0.6,1.1,1.2,1.5,2c0.4,0.8,0.7,1.7,0.9,2.7c0.1,0.5,0.2,1,0.2,1.6C116,209.5,116.1,209.9,116,210.3z"/>
			<path class="st10" d="M107.4,200.1c0,0.1,0,0.2-0.1,0.3c-0.2,0.4-0.4,0.9-0.6,1.3c-0.3,0.7-0.6,1.4-0.7,2.2
				c0,0.1-0.1,0.3-0.1,0.4c-0.1,0.1-0.1,0.2-0.2,0.3c-0.1,0.2-0.2,0.5-0.3,0.7c0,0,0,0.1,0,0.2c0,0,0,0,0,0c0-0.1-0.1-0.2-0.1-0.2
				c0-0.2,0-0.4,0-0.6c0-0.3,0-0.6,0-0.9c0-1.1,0.1-2,0.5-3c0.1-0.2,0.2-0.5,0.3-0.7c0.1-0.1,0.1-0.2,0.2-0.3
				c0.1-0.1,0.2-0.2,0.4-0.2c0.1,0,0.2,0,0.2,0C107.2,199.5,107.4,199.8,107.4,200.1z"/>
		</g>
		<g>
			<path class="st2" d="M150.1,181.5c0,1.4-0.2,2.9-0.7,4.2c-0.3,0.9-0.8,1.8-1.4,2.6c-0.6,0.7-1.2,1.2-2,1.6
				c-0.5,0.2-0.9,0.4-1.5,0.4c-0.3,0-0.6,0-0.8,0c-0.5,0-0.9-0.1-1.4-0.2c-0.7-0.2-1.4-0.5-2.1-1c-0.2-0.1-0.3-0.2-0.5-0.3
				c0,0-0.1,0.1-0.1,0.1c-0.5,0.5-1.1,0.8-1.8,1c-0.5,0.1-1,0.2-1.5,0.1c-1-0.1-1.9-0.4-2.7-1c-0.4-0.3-0.7-0.7-1-1.1
				c-0.5-0.7-0.8-1.5-0.9-2.4c-0.2-0.8-0.3-1.6-0.2-2.4c0-1.2,0.2-2.4,0.5-3.6c0.2-0.6,0.4-1.3,0.6-1.9c0.2-0.4,0.4-0.8,0.6-1.1
				c0.5-0.7,1.1-1.2,1.9-1.6c0.5-0.3,1.1-0.4,1.6-0.4c0.4,0,0.9,0.1,1.2,0.3c0.2,0.1,0.4,0.3,0.6,0.4c0.2,0.2,0.4,0.4,0.6,0.6
				c0.1,0.1,0.1,0.2,0.2,0.2c0,0.1,0.1,0.1,0.1,0.2c0,0,0,0,0,0c0-0.1,0-0.1,0-0.2c0-0.3,0.1-0.5,0.3-0.7c0.1-0.1,0.1-0.2,0.2-0.3
				c0.3-0.4,0.5-0.7,0.9-1c0.3-0.3,0.7-0.5,1-0.7c0.5-0.3,1-0.5,1.5-0.6c0.3-0.1,0.6-0.1,0.9-0.1c1.2-0.1,2.2,0.3,3.1,1.1
				c0.6,0.6,1.1,1.2,1.5,2c0.4,0.8,0.7,1.7,0.9,2.7c0.1,0.5,0.2,1,0.2,1.6C150.1,180.6,150.1,181.1,150.1,181.5z"/>
			<path class="st10" d="M141.4,171.2c0,0.1,0,0.2-0.1,0.3c-0.2,0.4-0.4,0.9-0.6,1.3c-0.3,0.7-0.6,1.4-0.7,2.2
				c0,0.1-0.1,0.3-0.1,0.4c-0.1,0.1-0.1,0.2-0.2,0.3c-0.1,0.2-0.2,0.5-0.3,0.7c0,0,0,0.1,0,0.2c0,0,0,0,0,0c0-0.1-0.1-0.2-0.1-0.2
				c0-0.2,0-0.4,0-0.6c0-0.3,0-0.6,0-0.9c0-1.1,0.1-2,0.5-3c0.1-0.2,0.2-0.5,0.3-0.7c0.1-0.1,0.1-0.2,0.2-0.3
				c0.1-0.1,0.2-0.2,0.4-0.2c0.1,0,0.2,0,0.2,0C141.2,170.7,141.4,170.9,141.4,171.2z"/>
		</g>
		<g>
			<path class="st2" d="M169.8,119.6c0,1.4-0.2,2.9-0.7,4.2c-0.3,0.9-0.8,1.8-1.4,2.6c-0.6,0.7-1.2,1.2-2,1.6
				c-0.5,0.2-0.9,0.4-1.5,0.4c-0.3,0-0.6,0-0.8,0c-0.5,0-0.9-0.1-1.4-0.2c-0.7-0.2-1.4-0.5-2.1-1c-0.2-0.1-0.3-0.2-0.5-0.3
				c0,0-0.1,0.1-0.1,0.1c-0.5,0.5-1.1,0.8-1.8,1c-0.5,0.1-1,0.2-1.5,0.1c-1-0.1-1.9-0.4-2.7-1c-0.4-0.3-0.7-0.7-1-1.1
				c-0.5-0.7-0.8-1.5-0.9-2.4c-0.2-0.8-0.3-1.6-0.2-2.4c0-1.2,0.2-2.4,0.5-3.6c0.2-0.6,0.4-1.3,0.6-1.9c0.2-0.4,0.4-0.8,0.6-1.1
				c0.5-0.7,1.1-1.2,1.9-1.6c0.5-0.3,1.1-0.4,1.6-0.4c0.4,0,0.9,0.1,1.2,0.3c0.2,0.1,0.4,0.3,0.6,0.4c0.2,0.2,0.4,0.4,0.6,0.6
				c0.1,0.1,0.1,0.2,0.2,0.2c0,0.1,0.1,0.1,0.1,0.2c0,0,0,0,0,0c0-0.1,0-0.1,0-0.2c0-0.3,0.1-0.5,0.3-0.7c0.1-0.1,0.1-0.2,0.2-0.3
				c0.3-0.4,0.5-0.7,0.9-1c0.3-0.3,0.7-0.5,1-0.7c0.5-0.3,1-0.5,1.5-0.6c0.3-0.1,0.6-0.1,0.9-0.1c1.2-0.1,2.2,0.3,3.1,1.1
				c0.6,0.6,1.1,1.2,1.5,2c0.4,0.8,0.7,1.7,0.9,2.7c0.1,0.5,0.2,1,0.2,1.6C169.7,118.7,169.8,119.2,169.8,119.6z"/>
			<path class="st10" d="M161.1,109.3c0,0.1,0,0.2-0.1,0.3c-0.2,0.4-0.4,0.9-0.6,1.3c-0.3,0.7-0.6,1.4-0.7,2.2
				c0,0.1-0.1,0.3-0.1,0.4c-0.1,0.1-0.1,0.2-0.2,0.3c-0.1,0.2-0.2,0.5-0.3,0.7c0,0,0,0.1,0,0.2c0,0,0,0,0,0c0-0.1-0.1-0.2-0.1-0.2
				c0-0.2,0-0.4,0-0.6c0-0.3,0-0.6,0-0.9c0-1.1,0.1-2,0.5-3c0.1-0.2,0.2-0.5,0.3-0.7c0.1-0.1,0.1-0.2,0.2-0.3
				c0.1-0.1,0.2-0.2,0.4-0.2c0.1,0,0.2,0,0.2,0C160.9,108.8,161.1,109,161.1,109.3z"/>
		</g>
		<g>
			<path class="st2" d="M291.5,157c0,1.4-0.2,2.9-0.7,4.2c-0.3,0.9-0.8,1.8-1.4,2.6c-0.6,0.7-1.2,1.2-2,1.6
				c-0.5,0.2-0.9,0.4-1.5,0.4c-0.3,0-0.6,0-0.8,0c-0.5,0-0.9-0.1-1.4-0.2c-0.7-0.2-1.4-0.5-2.1-1c-0.2-0.1-0.3-0.2-0.5-0.3
				c0,0-0.1,0.1-0.1,0.1c-0.5,0.5-1.1,0.8-1.8,1c-0.5,0.1-1,0.2-1.5,0.1c-1-0.1-1.9-0.4-2.7-1c-0.4-0.3-0.7-0.7-1-1.1
				c-0.5-0.7-0.8-1.5-0.9-2.4c-0.2-0.8-0.3-1.6-0.2-2.4c0-1.2,0.2-2.4,0.5-3.6c0.2-0.6,0.4-1.3,0.6-1.9c0.2-0.4,0.4-0.8,0.6-1.1
				c0.5-0.7,1.1-1.2,1.9-1.6c0.5-0.3,1.1-0.4,1.6-0.4c0.4,0,0.9,0.1,1.2,0.3c0.2,0.1,0.4,0.3,0.6,0.4c0.2,0.2,0.4,0.4,0.6,0.6
				c0.1,0.1,0.1,0.2,0.2,0.2c0,0.1,0.1,0.1,0.1,0.2c0,0,0,0,0,0c0-0.1,0-0.1,0-0.2c0-0.3,0.1-0.5,0.3-0.7c0.1-0.1,0.1-0.2,0.2-0.3
				c0.3-0.4,0.5-0.7,0.9-1c0.3-0.3,0.7-0.5,1-0.7c0.5-0.3,1-0.5,1.5-0.6c0.3-0.1,0.6-0.1,0.9-0.1c1.2-0.1,2.2,0.3,3.1,1.1
				c0.6,0.6,1.1,1.2,1.5,2c0.4,0.8,0.7,1.7,0.9,2.7c0.1,0.5,0.2,1,0.2,1.6C291.5,156.2,291.5,156.6,291.5,157z"/>
			<path class="st10" d="M282.8,146.8c0,0.1,0,0.2-0.1,0.3c-0.2,0.4-0.4,0.9-0.6,1.3c-0.3,0.7-0.6,1.4-0.7,2.2
				c0,0.1-0.1,0.3-0.1,0.4c-0.1,0.1-0.1,0.2-0.2,0.3c-0.1,0.2-0.2,0.5-0.3,0.7c0,0,0,0.1,0,0.2c0,0,0,0,0,0c0-0.1-0.1-0.2-0.1-0.2
				c0-0.2,0-0.4,0-0.6c0-0.3,0-0.6,0-0.9c0-1.1,0.1-2,0.5-3c0.1-0.2,0.2-0.5,0.3-0.7c0.1-0.1,0.1-0.2,0.2-0.3
				c0.1-0.1,0.2-0.2,0.4-0.2c0.1,0,0.2,0,0.2,0C282.6,146.2,282.8,146.5,282.8,146.8z"/>
		</g>
		<g>
			<path class="st2" d="M206,184.7c0,1.4-0.2,2.9-0.7,4.2c-0.3,0.9-0.8,1.8-1.4,2.6c-0.6,0.7-1.2,1.2-2,1.6
				c-0.5,0.2-0.9,0.4-1.5,0.4c-0.3,0-0.6,0-0.8,0c-0.5,0-0.9-0.1-1.4-0.2c-0.7-0.2-1.4-0.5-2.1-1c-0.2-0.1-0.3-0.2-0.5-0.3
				c0,0-0.1,0.1-0.1,0.1c-0.5,0.5-1.1,0.8-1.8,1c-0.5,0.1-1,0.2-1.5,0.1c-1-0.1-1.9-0.4-2.7-1c-0.4-0.3-0.7-0.7-1-1.1
				c-0.5-0.7-0.8-1.5-0.9-2.4c-0.2-0.8-0.3-1.6-0.2-2.4c0-1.2,0.2-2.4,0.5-3.6c0.2-0.6,0.4-1.3,0.6-1.9c0.2-0.4,0.4-0.8,0.6-1.1
				c0.5-0.7,1.1-1.2,1.9-1.6c0.5-0.3,1.1-0.4,1.6-0.4c0.4,0,0.9,0.1,1.2,0.3c0.2,0.1,0.4,0.3,0.6,0.4c0.2,0.2,0.4,0.4,0.6,0.6
				c0.1,0.1,0.1,0.2,0.2,0.2c0,0.1,0.1,0.1,0.1,0.2c0,0,0,0,0,0c0-0.1,0-0.1,0-0.2c0-0.3,0.1-0.5,0.3-0.7c0.1-0.1,0.1-0.2,0.2-0.3
				c0.3-0.4,0.5-0.7,0.9-1c0.3-0.3,0.7-0.5,1-0.7c0.5-0.3,1-0.5,1.5-0.6c0.3-0.1,0.6-0.1,0.9-0.1c1.2-0.1,2.2,0.3,3.1,1.1
				c0.6,0.6,1.1,1.2,1.5,2c0.4,0.8,0.7,1.7,0.9,2.7c0.1,0.5,0.2,1,0.2,1.6C206,183.8,206,184.2,206,184.7z"/>
			<path class="st10" d="M197.4,174.4c0,0.1,0,0.2-0.1,0.3c-0.2,0.4-0.4,0.9-0.6,1.3c-0.3,0.7-0.6,1.4-0.7,2.2
				c0,0.1-0.1,0.3-0.1,0.4c-0.1,0.1-0.1,0.2-0.2,0.3c-0.1,0.2-0.2,0.5-0.3,0.7c0,0,0,0.1,0,0.2c0,0,0,0,0,0c0-0.1-0.1-0.2-0.1-0.2
				c0-0.2,0-0.4,0-0.6c0-0.3,0-0.6,0-0.9c0-1.1,0.1-2,0.5-3c0.1-0.2,0.2-0.5,0.3-0.7c0.1-0.1,0.1-0.2,0.2-0.3
				c0.1-0.1,0.2-0.2,0.4-0.2c0.1,0,0.2,0,0.2,0C197.2,173.8,197.4,174.1,197.4,174.4z"/>
		</g>
		<g>
			<path class="st2" d="M248.5,227.6c0,1.4-0.2,2.9-0.7,4.2c-0.3,0.9-0.8,1.8-1.4,2.6c-0.6,0.7-1.2,1.2-2,1.6
				c-0.5,0.2-0.9,0.4-1.5,0.4c-0.3,0-0.6,0-0.8,0c-0.5,0-0.9-0.1-1.4-0.2c-0.7-0.2-1.4-0.5-2.1-1c-0.2-0.1-0.3-0.2-0.5-0.3
				c0,0-0.1,0.1-0.1,0.1c-0.5,0.5-1.1,0.8-1.8,1c-0.5,0.1-1,0.2-1.5,0.1c-1-0.1-1.9-0.4-2.7-1c-0.4-0.3-0.7-0.7-1-1.1
				c-0.5-0.7-0.8-1.5-0.9-2.4c-0.2-0.8-0.3-1.6-0.2-2.4c0-1.2,0.2-2.4,0.5-3.6c0.2-0.6,0.4-1.3,0.6-1.9c0.2-0.4,0.4-0.8,0.6-1.1
				c0.5-0.7,1.1-1.2,1.9-1.6c0.5-0.3,1.1-0.4,1.6-0.4c0.4,0,0.9,0.1,1.2,0.3c0.2,0.1,0.4,0.3,0.6,0.4c0.2,0.2,0.4,0.4,0.6,0.6
				c0.1,0.1,0.1,0.2,0.2,0.2c0,0.1,0.1,0.1,0.1,0.2c0,0,0,0,0,0c0-0.1,0-0.1,0-0.2c0-0.3,0.1-0.5,0.3-0.7c0.1-0.1,0.1-0.2,0.2-0.3
				c0.3-0.4,0.5-0.7,0.9-1c0.3-0.3,0.7-0.5,1-0.7c0.5-0.3,1-0.5,1.5-0.6c0.3-0.1,0.6-0.1,0.9-0.1c1.2-0.1,2.2,0.3,3.1,1.1
				c0.6,0.6,1.1,1.2,1.5,2c0.4,0.8,0.7,1.7,0.9,2.7c0.1,0.5,0.2,1,0.2,1.6C248.5,226.7,248.5,227.2,248.5,227.6z"/>
			<path class="st10" d="M239.8,217.3c0,0.1,0,0.2-0.1,0.3c-0.2,0.4-0.4,0.9-0.6,1.3c-0.3,0.7-0.6,1.4-0.7,2.2
				c0,0.1-0.1,0.3-0.1,0.4c-0.1,0.1-0.1,0.2-0.2,0.3c-0.1,0.2-0.2,0.5-0.3,0.7c0,0,0,0.1,0,0.2c0,0,0,0,0,0c0-0.1-0.1-0.2-0.1-0.2
				c0-0.2,0-0.4,0-0.6c0-0.3,0-0.6,0-0.9c0-1.1,0.1-2,0.5-3c0.1-0.2,0.2-0.5,0.3-0.7c0.1-0.1,0.1-0.2,0.2-0.3
				c0.1-0.1,0.2-0.2,0.4-0.2c0.1,0,0.2,0,0.2,0C239.6,216.8,239.8,217,239.8,217.3z"/>
		</g>
		<g>
			<path class="st2" d="M348,230.5c0,1.4-0.2,2.9-0.7,4.2c-0.3,0.9-0.8,1.8-1.4,2.6c-0.6,0.7-1.2,1.2-2,1.6
				c-0.5,0.2-0.9,0.4-1.5,0.4c-0.3,0-0.6,0-0.8,0c-0.5,0-0.9-0.1-1.4-0.2c-0.7-0.2-1.4-0.5-2.1-1c-0.2-0.1-0.3-0.2-0.5-0.3
				c0,0-0.1,0.1-0.1,0.1c-0.5,0.5-1.1,0.8-1.8,1c-0.5,0.1-1,0.2-1.5,0.1c-1-0.1-1.9-0.4-2.7-1c-0.4-0.3-0.7-0.7-1-1.1
				c-0.5-0.7-0.8-1.5-0.9-2.4c-0.2-0.8-0.3-1.6-0.2-2.4c0-1.2,0.2-2.4,0.5-3.6c0.2-0.6,0.4-1.3,0.6-1.9c0.2-0.4,0.4-0.8,0.6-1.1
				c0.5-0.7,1.1-1.2,1.9-1.6c0.5-0.3,1.1-0.4,1.6-0.4c0.4,0,0.9,0.1,1.2,0.3c0.2,0.1,0.4,0.3,0.6,0.4c0.2,0.2,0.4,0.4,0.6,0.6
				c0.1,0.1,0.1,0.2,0.2,0.2c0,0.1,0.1,0.1,0.1,0.2c0,0,0,0,0,0c0-0.1,0-0.1,0-0.2c0-0.3,0.1-0.5,0.3-0.7c0.1-0.1,0.1-0.2,0.2-0.3
				c0.3-0.4,0.5-0.7,0.9-1c0.3-0.3,0.7-0.5,1-0.7c0.5-0.3,1-0.5,1.5-0.6c0.3-0.1,0.6-0.1,0.9-0.1c1.2-0.1,2.2,0.3,3.1,1.1
				c0.6,0.6,1.1,1.2,1.5,2c0.4,0.8,0.7,1.7,0.9,2.7c0.1,0.5,0.2,1,0.2,1.6C348,229.6,348,230.1,348,230.5z"/>
			<path class="st10" d="M339.4,220.2c0,0.1,0,0.2-0.1,0.3c-0.2,0.4-0.4,0.9-0.6,1.3c-0.3,0.7-0.6,1.4-0.7,2.2
				c0,0.1-0.1,0.3-0.1,0.4c-0.1,0.1-0.1,0.2-0.2,0.3c-0.1,0.2-0.2,0.5-0.3,0.7c0,0,0,0.1,0,0.2c0,0,0,0,0,0c0-0.1-0.1-0.2-0.1-0.2
				c0-0.2,0-0.4,0-0.6c0-0.3,0-0.6,0-0.9c0-1.1,0.1-2,0.5-3c0.1-0.2,0.2-0.5,0.3-0.7c0.1-0.1,0.1-0.2,0.2-0.3
				c0.1-0.1,0.2-0.2,0.4-0.2c0.1,0,0.2,0,0.2,0C339.2,219.7,339.4,220,339.4,220.2z"/>
		</g>
		<g>
			<path class="st2" d="M155.1,264.5c0,1.4-0.2,2.9-0.7,4.2c-0.3,0.9-0.8,1.8-1.4,2.6c-0.6,0.7-1.2,1.2-2,1.6
				c-0.5,0.2-0.9,0.4-1.5,0.4c-0.3,0-0.6,0-0.8,0c-0.5,0-0.9-0.1-1.4-0.2c-0.7-0.2-1.4-0.5-2.1-1c-0.2-0.1-0.3-0.2-0.5-0.3
				c0,0-0.1,0.1-0.1,0.1c-0.5,0.5-1.1,0.8-1.8,1c-0.5,0.1-1,0.2-1.5,0.1c-1-0.1-1.9-0.4-2.7-1c-0.4-0.3-0.7-0.7-1-1.1
				c-0.5-0.7-0.8-1.5-0.9-2.4c-0.2-0.8-0.3-1.6-0.2-2.4c0-1.2,0.2-2.4,0.5-3.6c0.2-0.6,0.4-1.3,0.6-1.9c0.2-0.4,0.4-0.8,0.6-1.1
				c0.5-0.7,1.1-1.2,1.9-1.6c0.5-0.3,1.1-0.4,1.6-0.4c0.4,0,0.9,0.1,1.2,0.3c0.2,0.1,0.4,0.3,0.6,0.4c0.2,0.2,0.4,0.4,0.6,0.6
				c0.1,0.1,0.1,0.2,0.2,0.2c0,0.1,0.1,0.1,0.1,0.2c0,0,0,0,0,0c0-0.1,0-0.1,0-0.2c0-0.3,0.1-0.5,0.3-0.7c0.1-0.1,0.1-0.2,0.2-0.3
				c0.3-0.4,0.5-0.7,0.9-1c0.3-0.3,0.7-0.5,1-0.7c0.5-0.3,1-0.5,1.5-0.6c0.3-0.1,0.6-0.1,0.9-0.1c1.2-0.1,2.2,0.3,3.1,1.1
				c0.6,0.6,1.1,1.2,1.5,2c0.4,0.8,0.7,1.7,0.9,2.7c0.1,0.5,0.2,1,0.2,1.6C155.1,263.7,155.2,264.1,155.1,264.5z"/>
			<path class="st10" d="M146.5,254.3c0,0.1,0,0.2-0.1,0.3c-0.2,0.4-0.4,0.9-0.6,1.3c-0.3,0.7-0.6,1.4-0.7,2.2
				c0,0.1-0.1,0.3-0.1,0.4c-0.1,0.1-0.1,0.2-0.2,0.3c-0.1,0.2-0.2,0.5-0.3,0.7c0,0,0,0.1,0,0.2c0,0,0,0,0,0c0-0.1-0.1-0.2-0.1-0.2
				c0-0.2,0-0.4,0-0.6c0-0.3,0-0.6,0-0.9c0-1.1,0.1-2,0.5-3c0.1-0.2,0.2-0.5,0.3-0.7c0.1-0.1,0.1-0.2,0.2-0.3
				c0.1-0.1,0.2-0.2,0.4-0.2c0.1,0,0.2,0,0.2,0C146.3,253.7,146.5,254,146.5,254.3z"/>
		</g>
	</g>
	<g>
		<path class="st17" d="M131.3,162.3c-0.5,0-1,0-1.5,0c-2.7,0-5.2-1-7.4-2.7c-2.1-1.6-3.9-3.5-5.6-5.6c-1.5-1.8-2.7-3.7-4-5.6
			c-0.4-0.6-0.3-1.1,0.4-1.3c0.9-0.3,1.8-0.5,2.7-0.7c1.5-0.3,3.1-0.3,4.6-0.2c2.6,0.1,5,0.7,7.4,1.9c1.6,0.8,3,2,4.1,3.6
			c1.2,1.8,2.3,3.7,2.7,5.9c0.2,1,0.3,2,0.4,3c0,0.3,0,0.5-0.1,0.8c-0.1,0.5-0.2,0.7-0.7,0.8C133.3,162.3,132.3,162.4,131.3,162.3z"
			/>
		<path class="st17" d="M192.4,159.9c0.2-0.5,0.4-0.9,0.6-1.4c1.2-2.5,3-4.3,5.5-5.6c2.3-1.2,4.8-2.1,7.4-2.8c2.2-0.6,4.5-1,6.8-1.4
			c0.7-0.1,1.1,0.2,1.1,0.9c-0.1,0.9-0.3,1.9-0.5,2.8c-0.4,1.5-1,2.9-1.7,4.3c-1.2,2.3-2.7,4.3-4.8,6c-1.4,1.1-3.1,1.9-5,2.2
			c-2.1,0.4-4.3,0.6-6.5,0.1c-1-0.2-2-0.6-2.9-0.9c-0.2-0.1-0.5-0.2-0.7-0.4c-0.4-0.3-0.5-0.5-0.4-1
			C191.5,161.7,191.9,160.8,192.4,159.9z"/>
		<path class="st17" d="M292.7,196.5c0.2-0.5,0.4-0.9,0.6-1.4c1.2-2.5,3-4.3,5.5-5.6c2.3-1.2,4.8-2.1,7.4-2.8c2.2-0.6,4.5-1,6.8-1.4
			c0.7-0.1,1.1,0.2,1.1,0.9c-0.1,0.9-0.3,1.9-0.5,2.8c-0.4,1.5-1,2.9-1.7,4.3c-1.2,2.3-2.7,4.3-4.8,6c-1.4,1.1-3.1,1.9-5,2.2
			c-2.1,0.4-4.3,0.6-6.5,0.1c-1-0.2-2-0.6-2.9-0.9c-0.2-0.1-0.5-0.2-0.7-0.4c-0.4-0.3-0.5-0.5-0.4-1
			C291.8,198.3,292.2,197.4,292.7,196.5z"/>
		<path class="st17" d="M246.9,119.5c0.5,0.1,1,0.2,1.5,0.3c2.7,0.5,4.9,1.9,6.7,4c1.7,2,3.2,4.2,4.5,6.5c1.1,2,2,4.2,2.9,6.3
			c0.3,0.6,0,1.2-0.6,1.2c-0.9,0.1-1.9,0.2-2.8,0.1c-1.6,0-3.1-0.3-4.6-0.7c-2.5-0.6-4.8-1.6-6.9-3.2c-1.4-1.1-2.6-2.6-3.3-4.3
			c-0.9-2-1.6-4-1.6-6.3c0-1,0.1-2,0.2-3.1c0-0.3,0.1-0.5,0.2-0.8c0.2-0.5,0.4-0.6,0.8-0.6C244.9,119.1,245.9,119.3,246.9,119.5z"/>
		<path class="st17" d="M118.7,270.6c-0.5-0.1-1-0.1-1.5-0.2c-2.7-0.4-5-1.7-6.9-3.7c-1.8-1.9-3.4-4-4.7-6.3c-1.2-2-2.2-4.1-3.2-6.1
			c-0.3-0.6-0.1-1.2,0.6-1.3c0.9-0.1,1.9-0.2,2.8-0.3c1.6,0,3.1,0.2,4.6,0.5c2.5,0.5,4.9,1.4,7,2.9c1.5,1.1,2.7,2.5,3.5,4.2
			c0.9,1.9,1.7,4,1.8,6.2c0.1,1,0,2-0.1,3.1c0,0.3-0.1,0.5-0.2,0.8c-0.2,0.5-0.3,0.6-0.8,0.6C120.7,270.9,119.7,270.8,118.7,270.6z"
			/>
		<path class="st17" d="M311.6,260.6c0.5,0.2,1,0.3,1.4,0.5c2.5,0.9,4.5,2.6,6,5c1.4,2.2,2.5,4.6,3.4,7.1c0.8,2.2,1.3,4.4,1.9,6.6
			c0.2,0.7-0.1,1.2-0.8,1.1c-0.9,0-1.9-0.1-2.8-0.3c-1.5-0.3-3-0.8-4.4-1.4c-2.4-1-4.5-2.3-6.3-4.2c-1.3-1.3-2.1-2.9-2.6-4.8
			c-0.5-2.1-0.9-4.2-0.6-6.4c0.1-1,0.4-2,0.6-3c0.1-0.2,0.2-0.5,0.3-0.7c0.2-0.5,0.5-0.6,0.9-0.5
			C309.7,259.9,310.7,260.2,311.6,260.6z"/>
		<path class="st17" d="M214.4,100.5c-0.4-0.3-0.8-0.7-1.1-1c-2-1.8-3.2-4.1-3.7-6.9c-0.5-2.6-0.6-5.2-0.5-7.9
			c0.1-2.3,0.4-4.6,0.7-6.9c0.1-0.7,0.6-1,1.2-0.8c0.9,0.4,1.7,0.8,2.5,1.3c1.3,0.8,2.5,1.8,3.6,2.9c1.8,1.8,3.3,3.8,4.3,6.3
			c0.7,1.7,0.9,3.5,0.7,5.4c-0.3,2.1-0.7,4.3-1.8,6.2c-0.5,0.9-1.1,1.7-1.7,2.5c-0.1,0.2-0.4,0.4-0.6,0.5c-0.4,0.3-0.6,0.4-1,0.1
			C215.9,101.9,215.1,101.2,214.4,100.5z"/>
	</g>
</g>
</svg>
